<mxfile host="app.diagrams.net" modified="2024-03-05T22:10:12.506Z" agent="Mozilla/5.0 (X11; Ubuntu; Linux x86_64; rv:123.0) Gecko/20100101 Firefox/123.0" etag="FJNt4IhqTbTHjnK4Y1sW" version="24.0.2" type="device">
  <diagram name="Page-1" id="7b8Y8SlTeopUO8dvRDKn">
    <mxGraphModel dx="1368" dy="795" grid="1" gridSize="10" guides="1" tooltips="1" connect="1" arrows="1" fold="1" page="1" pageScale="1" pageWidth="850" pageHeight="1100" math="0" shadow="0">
      <root>
        <mxCell id="0" />
        <mxCell id="1" parent="0" />
        <mxCell id="4-he3v3tDCcrN9qqTHR9-16" style="edgeStyle=orthogonalEdgeStyle;rounded=0;orthogonalLoop=1;jettySize=auto;html=1;exitX=0.5;exitY=1;exitDx=0;exitDy=0;strokeWidth=2;" edge="1" parent="1" source="4-he3v3tDCcrN9qqTHR9-1" target="4-he3v3tDCcrN9qqTHR9-3">
          <mxGeometry relative="1" as="geometry" />
        </mxCell>
        <mxCell id="4-he3v3tDCcrN9qqTHR9-17" style="edgeStyle=orthogonalEdgeStyle;rounded=0;orthogonalLoop=1;jettySize=auto;html=1;exitX=0.5;exitY=1;exitDx=0;exitDy=0;entryX=0.5;entryY=0;entryDx=0;entryDy=0;strokeWidth=2;" edge="1" parent="1" source="4-he3v3tDCcrN9qqTHR9-1" target="4-he3v3tDCcrN9qqTHR9-2">
          <mxGeometry relative="1" as="geometry" />
        </mxCell>
        <mxCell id="4-he3v3tDCcrN9qqTHR9-18" style="edgeStyle=orthogonalEdgeStyle;rounded=0;orthogonalLoop=1;jettySize=auto;html=1;exitX=0.5;exitY=1;exitDx=0;exitDy=0;entryX=0.5;entryY=0;entryDx=0;entryDy=0;strokeWidth=2;" edge="1" parent="1" source="4-he3v3tDCcrN9qqTHR9-1" target="4-he3v3tDCcrN9qqTHR9-4">
          <mxGeometry relative="1" as="geometry" />
        </mxCell>
        <mxCell id="4-he3v3tDCcrN9qqTHR9-19" style="edgeStyle=orthogonalEdgeStyle;rounded=0;orthogonalLoop=1;jettySize=auto;html=1;exitX=0.5;exitY=1;exitDx=0;exitDy=0;entryX=0.5;entryY=0;entryDx=0;entryDy=0;strokeWidth=2;" edge="1" parent="1" source="4-he3v3tDCcrN9qqTHR9-1" target="4-he3v3tDCcrN9qqTHR9-6">
          <mxGeometry relative="1" as="geometry" />
        </mxCell>
        <mxCell id="4-he3v3tDCcrN9qqTHR9-1" value="&lt;b&gt;Python - Data Types&lt;/b&gt;" style="rounded=1;whiteSpace=wrap;html=1;fontSize=24;fillColor=#dae8fc;strokeColor=#6c8ebf;" vertex="1" parent="1">
          <mxGeometry x="297" y="50" width="257" height="60" as="geometry" />
        </mxCell>
        <mxCell id="4-he3v3tDCcrN9qqTHR9-2" value="Boolean" style="rounded=1;whiteSpace=wrap;html=1;fontSize=18;fillColor=#CCFFFF;strokeColor=#000000;" vertex="1" parent="1">
          <mxGeometry x="260" y="160" width="130" height="50" as="geometry" />
        </mxCell>
        <mxCell id="4-he3v3tDCcrN9qqTHR9-20" style="edgeStyle=orthogonalEdgeStyle;rounded=0;orthogonalLoop=1;jettySize=auto;html=1;exitX=0.5;exitY=1;exitDx=0;exitDy=0;entryX=0;entryY=0.5;entryDx=0;entryDy=0;strokeWidth=2;" edge="1" parent="1" source="4-he3v3tDCcrN9qqTHR9-3" target="4-he3v3tDCcrN9qqTHR9-8">
          <mxGeometry relative="1" as="geometry" />
        </mxCell>
        <mxCell id="4-he3v3tDCcrN9qqTHR9-21" style="edgeStyle=orthogonalEdgeStyle;rounded=0;orthogonalLoop=1;jettySize=auto;html=1;exitX=0.5;exitY=1;exitDx=0;exitDy=0;entryX=0;entryY=0.5;entryDx=0;entryDy=0;strokeWidth=2;" edge="1" parent="1" source="4-he3v3tDCcrN9qqTHR9-3" target="4-he3v3tDCcrN9qqTHR9-10">
          <mxGeometry relative="1" as="geometry" />
        </mxCell>
        <mxCell id="4-he3v3tDCcrN9qqTHR9-22" style="edgeStyle=orthogonalEdgeStyle;rounded=0;orthogonalLoop=1;jettySize=auto;html=1;exitX=0.5;exitY=1;exitDx=0;exitDy=0;entryX=0;entryY=0.5;entryDx=0;entryDy=0;strokeWidth=2;" edge="1" parent="1" source="4-he3v3tDCcrN9qqTHR9-3" target="4-he3v3tDCcrN9qqTHR9-7">
          <mxGeometry relative="1" as="geometry" />
        </mxCell>
        <mxCell id="4-he3v3tDCcrN9qqTHR9-3" value="Numeric" style="rounded=1;whiteSpace=wrap;html=1;fontSize=18;fillColor=#CCFFFF;strokeColor=#1A1A1A;" vertex="1" parent="1">
          <mxGeometry x="60" y="160" width="130" height="50" as="geometry" />
        </mxCell>
        <mxCell id="4-he3v3tDCcrN9qqTHR9-24" style="edgeStyle=orthogonalEdgeStyle;rounded=0;orthogonalLoop=1;jettySize=auto;html=1;exitX=0.5;exitY=1;exitDx=0;exitDy=0;entryX=0;entryY=0.5;entryDx=0;entryDy=0;strokeWidth=2;" edge="1" parent="1" source="4-he3v3tDCcrN9qqTHR9-4" target="4-he3v3tDCcrN9qqTHR9-11">
          <mxGeometry relative="1" as="geometry" />
        </mxCell>
        <mxCell id="4-he3v3tDCcrN9qqTHR9-25" style="edgeStyle=orthogonalEdgeStyle;rounded=0;orthogonalLoop=1;jettySize=auto;html=1;exitX=0.5;exitY=1;exitDx=0;exitDy=0;entryX=0;entryY=0.5;entryDx=0;entryDy=0;strokeWidth=2;" edge="1" parent="1" source="4-he3v3tDCcrN9qqTHR9-4" target="4-he3v3tDCcrN9qqTHR9-12">
          <mxGeometry relative="1" as="geometry" />
        </mxCell>
        <mxCell id="4-he3v3tDCcrN9qqTHR9-26" style="edgeStyle=orthogonalEdgeStyle;rounded=0;orthogonalLoop=1;jettySize=auto;html=1;exitX=0.5;exitY=1;exitDx=0;exitDy=0;entryX=0;entryY=0.5;entryDx=0;entryDy=0;strokeWidth=2;" edge="1" parent="1" source="4-he3v3tDCcrN9qqTHR9-4" target="4-he3v3tDCcrN9qqTHR9-13">
          <mxGeometry relative="1" as="geometry" />
        </mxCell>
        <mxCell id="4-he3v3tDCcrN9qqTHR9-4" value="&lt;div&gt;Sequence&amp;nbsp;&lt;/div&gt;&lt;div&gt;Type&lt;/div&gt;" style="rounded=1;whiteSpace=wrap;html=1;fontSize=18;fillColor=#CCFFFF;strokeColor=#000000;" vertex="1" parent="1">
          <mxGeometry x="460" y="160" width="127.5" height="50" as="geometry" />
        </mxCell>
        <mxCell id="4-he3v3tDCcrN9qqTHR9-27" style="edgeStyle=orthogonalEdgeStyle;rounded=0;orthogonalLoop=1;jettySize=auto;html=1;exitX=0.5;exitY=1;exitDx=0;exitDy=0;entryX=0;entryY=0.5;entryDx=0;entryDy=0;strokeWidth=2;" edge="1" parent="1" source="4-he3v3tDCcrN9qqTHR9-6" target="4-he3v3tDCcrN9qqTHR9-14">
          <mxGeometry relative="1" as="geometry" />
        </mxCell>
        <mxCell id="4-he3v3tDCcrN9qqTHR9-28" style="edgeStyle=orthogonalEdgeStyle;rounded=0;orthogonalLoop=1;jettySize=auto;html=1;exitX=0.5;exitY=1;exitDx=0;exitDy=0;entryX=0;entryY=0.5;entryDx=0;entryDy=0;strokeWidth=2;" edge="1" parent="1" source="4-he3v3tDCcrN9qqTHR9-6" target="4-he3v3tDCcrN9qqTHR9-15">
          <mxGeometry relative="1" as="geometry" />
        </mxCell>
        <mxCell id="4-he3v3tDCcrN9qqTHR9-6" value="&lt;div&gt;Non-Sequence Type&lt;/div&gt;" style="rounded=1;whiteSpace=wrap;html=1;fontSize=18;fillColor=#CCFFFF;strokeColor=#000000;" vertex="1" parent="1">
          <mxGeometry x="660" y="160" width="130" height="50" as="geometry" />
        </mxCell>
        <mxCell id="4-he3v3tDCcrN9qqTHR9-7" value="&lt;div style=&quot;font-size: 16px;&quot;&gt;&lt;font style=&quot;font-size: 16px;&quot;&gt;Complex &lt;br style=&quot;font-size: 16px;&quot;&gt;&lt;/font&gt;&lt;/div&gt;&lt;div style=&quot;font-size: 16px;&quot;&gt;&lt;font style=&quot;font-size: 16px;&quot;&gt;&lt;font style=&quot;font-size: 16px;&quot;&gt;Number&lt;/font&gt;&lt;br style=&quot;font-size: 16px;&quot;&gt;&lt;/font&gt;&lt;/div&gt;" style="rounded=1;whiteSpace=wrap;html=1;fontSize=16;fillColor=#EDFFFB;" vertex="1" parent="1">
          <mxGeometry x="150" y="350" width="90" height="50" as="geometry" />
        </mxCell>
        <mxCell id="4-he3v3tDCcrN9qqTHR9-8" value="&lt;div style=&quot;font-size: 16px;&quot;&gt;Integer&lt;/div&gt;" style="rounded=1;whiteSpace=wrap;html=1;fontSize=16;fillColor=#EDFFFB;strokeColor=#000000;" vertex="1" parent="1">
          <mxGeometry x="150" y="230" width="90" height="40" as="geometry" />
        </mxCell>
        <mxCell id="4-he3v3tDCcrN9qqTHR9-10" value="Float" style="rounded=1;whiteSpace=wrap;html=1;fontSize=16;fillColor=#EDFFFB;" vertex="1" parent="1">
          <mxGeometry x="150" y="290" width="90" height="40" as="geometry" />
        </mxCell>
        <mxCell id="4-he3v3tDCcrN9qqTHR9-11" value="String" style="rounded=1;whiteSpace=wrap;html=1;fontSize=16;fillColor=#EDFFFB;" vertex="1" parent="1">
          <mxGeometry x="550" y="230" width="90" height="40" as="geometry" />
        </mxCell>
        <mxCell id="4-he3v3tDCcrN9qqTHR9-12" value="List" style="rounded=1;whiteSpace=wrap;html=1;fontSize=16;fillColor=#EDFFFB;" vertex="1" parent="1">
          <mxGeometry x="550" y="290" width="90" height="40" as="geometry" />
        </mxCell>
        <mxCell id="4-he3v3tDCcrN9qqTHR9-13" value="Tuple" style="rounded=1;whiteSpace=wrap;html=1;fontSize=16;fillColor=#EDFFFB;" vertex="1" parent="1">
          <mxGeometry x="550" y="350" width="90" height="40" as="geometry" />
        </mxCell>
        <mxCell id="4-he3v3tDCcrN9qqTHR9-14" value="Set" style="rounded=1;whiteSpace=wrap;html=1;fontSize=16;fillColor=#EDFFFB;" vertex="1" parent="1">
          <mxGeometry x="750" y="230" width="90" height="40" as="geometry" />
        </mxCell>
        <mxCell id="4-he3v3tDCcrN9qqTHR9-15" value="Dictionary" style="rounded=1;whiteSpace=wrap;html=1;fontSize=16;fillColor=#EDFFFB;" vertex="1" parent="1">
          <mxGeometry x="750" y="290" width="90" height="40" as="geometry" />
        </mxCell>
      </root>
    </mxGraphModel>
  </diagram>
</mxfile>
